# xmcd
#
# Track frame offsets:
#	150
#	4606
#	30653
#	41628
#	63390
#	74396
#	91786
#	106435
#	129193
#	143153
#	157053
#	167257
#	189444
#	203251
#	218181
#	231516
#	241850
#	258330
#	273179
#	294377
#	321215
#
# Disc length: 4445 seconds
#
# Revision: 0
# Processed by: cddbd v1.4PL0 Copyright (c) Steve Scherf et al.
# Submitted via: EasyCDDAExtractor 4.6.0.1
#
DISCID=1d115b15
DTITLE=John Denver - Greatest hits
DYEAR=1900
DGENRE=Country
TTITLE0=The music is you (live)
TTITLE1=Farewel Andrómeda (live)
TTITLE2=Mother nature's son (live)
TTITLE3=Summer (live)
TTITLE4=Toledo (live)
TTITLE5=Matthew (live)
TTITLE6=Rocky mountain suite (live)
TTITLE7=Sweet surrender (live)
TTITLE8=Grandma's feather bed (live)
TTITLE9=Annie's song (live)
TTITLE10=The eagle and the hawk (live)
TTITLE11=My sweet lady (live)
TTITLE12=Annie's other song (live)
TTITLE13=Rhymes and reasons (live)
TTITLE14=Forest lawn (live)
TTITLE15=Blue grass (live)
TTITLE16=Thank god I'm a country boy (live)
TTITLE17=Take me home, country roads (live)
TTITLE18=Poems, prayers and promises (live)
TTITLE19=Rocky mountain high (live)
TTITLE20=This old guitar (live)
EXTD=
EXTT0=
EXTT1=
EXTT2=
EXTT3=
EXTT4=
EXTT5=
EXTT6=
EXTT7=
EXTT8=
EXTT9=
EXTT10=
EXTT11=
EXTT12=
EXTT13=
EXTT14=
EXTT15=
EXTT16=
EXTT17=
EXTT18=
EXTT19=
EXTT20=
PLAYORDER=
